<?xml version="1.0" encoding="UTF-8"?> <svg xmlns="http://www.w3.org/2000/svg" xmlns:xlink="http://www.w3.org/1999/xlink" version="1.1" id="katman_1" x="0px" y="0px" viewBox="0 0 369 58.7" style="enable-background:new 0 0 369 58.7;" xml:space="preserve"> <style type="text/css"> .st0{fill:#6B665A;} </style> <g> <path class="st0" d="M253.8,31c0,13.8-11.8,22.8-23.3,22.8c-11.6,0-21.5-7-21.5-19.1c0-14.2,11.8-22.8,23.3-22.8 S253.8,19.1,253.8,31z M246.6,28.2c-3-10.3-11.1-17.6-20.9-14.8s-12.5,13.6-9.5,24c3,10.3,11.1,17.7,20.9,14.8 C247,49.4,249.6,38.6,246.6,28.2z"></path> </g> <path class="st0" d="M84.9,39.1c-0.5,6.4-6.2,14.8-18.9,14.8c-12.4,0-24.3-6.1-24.6-20.9C41,17.6,55,10.9,64.9,10.3 C72.5,10,83,13.6,84.2,24.5c-0.8,0-6.4,0-6.4,0h-2C81,25.8,85.7,31,84.9,39.1z M72.2,24.5H49c-1.2,4.7-0.9,10,0.6,14.3 c3.3,9.4,10,13.5,19.2,13.2c7.7-0.4,14.4-5.6,15.3-12.6C85.2,30,79,24.5,72.2,24.5z M49.2,23.7h28.6C76.6,16,69.6,9.7,60.8,11.4 C54.8,12.6,50.8,17.7,49.2,23.7z"></path> <path class="st0" d="M366.4,39.1c-0.5,6.4-6.2,14.8-18.9,14.8c-12.4,0-24.3-6.1-24.6-20.9c-0.4-15.5,13.6-22.2,23.5-22.7 c7.6-0.4,18.1,3.3,19.3,14.1c-0.8,0-6.4,0-6.4,0h-2C362.4,25.8,367.1,31,366.4,39.1z M353.7,24.5h-23.2c-1.2,4.7-0.9,10,0.6,14.3 c3.3,9.4,10,13.5,19.2,13.2c7.7-0.4,14.4-5.6,15.3-12.6C366.6,30,360.5,24.5,353.7,24.5z M330.6,23.7h28.6 c-1.2-7.8-8.1-14.1-16.9-12.4C336.2,12.6,332.3,17.7,330.6,23.7z"></path> <path class="st0" d="M155.1,53.4c0,0.2,0,0.6,0,0.6h-11c0,0,0-0.4,0-0.6c1.3-0.8,1.8-2.3,1.5-5.3c-0.4-2.9-1.6-18-2-22.6 c-0.7-6.7-3.3-14.3-10.3-12.7c-8.2,1.8-9.3,15.6-9.4,25v10.4c0,3.1,0.6,4.5,2,5.3c0,0.2,0,0.6,0,0.6h-11c0,0,0-0.4,0-0.6 c1.3-0.8,2-2.1,2-5.3V25.5c0-6.8-3.1-14.1-10.1-12.7c-10,1.9-10.4,20.5-10.4,28.1v7.3c0,3.1,0.7,4.5,2,5.3c0,0.2,0,0.6,0,0.6H87.4 c0,0,0-0.4,0-0.6c1.3-0.8,2.1-2.1,2.1-5.3V18c0-3.1-0.3-4-2.1-4.3c0-0.2,0-0.6,0-0.6l8.4-2h0.6v19.8c1-9.5,3.7-19.8,14.4-19.8 c6.9,0,12.7,5.9,13.1,15.7l0.1,1c1.1-8.6,4.4-16.7,13.4-16.7c7,0,12,5.3,13.1,15.7c1,8.6,1.8,18,2.1,21.3 C152.9,51.3,153.7,52.6,155.1,53.4z"></path> <path class="st0" d="M322.1,53.4c0,0.2,0,0.6,0,0.6h-10.7c0,0,0-0.4,0-0.6c1.3-0.8,1.7-2.3,1.5-5.1c-0.3-2.9-1.6-17.5-2-22 c-0.7-6.5-3.2-13.9-10-12.4c-8,1.7-9,15.2-9.1,24.3v10.1c0,3,0.6,4.3,1.9,5.1c0,0.2,0,0.6,0,0.6h-10.7c0,0,0-0.4,0-0.6 c1.3-0.8,1.9-2.1,1.9-5.1v-22c0-6.6-3-13.7-9.8-12.4c-9.7,1.8-10.1,19.9-10.1,27.3v7.1c0,3,0.7,4.3,2,5.1c0,0.2,0,0.6,0,0.6h-10.7 c0,0,0-0.4,0-0.6c1.3-0.8,2-2.1,2-5.1V19c0-3-0.3-3.9-2-4.2c0-0.2,0-0.6,0-0.6l8.1-1.9h0.6v19.2c1-9.2,3.6-19.2,13.9-19.2 c6.7,0,12.4,5.7,12.7,15.3l0.1,1c1-8.4,4.2-16.2,13-16.2c6.8,0,11.7,5.1,12.7,15.3c1,8.4,1.7,17.5,2.1,20.7 C320,51.4,320.8,52.6,322.1,53.4z"></path> <path class="st0" d="M39.6,43.4l-2,10.8H1.9l28.7-42.5h-8.2c-9.9,0-14.6,4.9-18.6,9.6L3.2,21l3-9.9h32.3L9.8,53.6h10.7 c10.5-0.1,14.4-5.1,18.6-10.6L39.6,43.4z"></path> <path class="st0" d="M204.4,14.7v35.2c0,2.2,0.4,3.1,1.4,3.7c0,0.1,0,0.4,0,0.4h-7.9c0,0,0-0.3,0-0.4c1-0.6,1.5-1.5,1.5-3.7V28.5 h-22.2v21.4c0,2.2,0.4,3.1,1.4,3.7c0,0.1,0,0.4,0,0.4h-7.9c0,0,0-0.3,0-0.4c1-0.6,1.5-1.5,1.5-3.7V14.7c0-2.2-0.4-3.1-1.5-3.7 c0-0.1,0-0.5,0-0.5h7.9c0,0,0,0.4,0,0.5c-1,0.6-1.4,1.5-1.4,3.7v13.3h22.2V14.7c0-2.2-0.4-3.1-1.5-3.7c0-0.1,0-0.5,0-0.5h7.9 c0,0,0,0.4,0,0.5C204.8,11.6,204.4,12.6,204.4,14.7z"></path> <g> <path class="st0" d="M155.5,8.8c0,1.1-0.4,2-1.1,2.8c-0.8,0.8-1.7,1.1-2.7,1.1s-2-0.4-2.7-1.1c-0.8-0.8-1.1-1.7-1.1-2.8 c0-1.1,0.4-2,1.1-2.7c0.8-0.8,1.7-1.1,2.7-1.1s2,0.4,2.7,1.1C155.2,6.8,155.5,7.7,155.5,8.8z M155.1,8.8c0-1-0.3-1.8-1-2.5 c-0.7-0.7-1.5-1-2.5-1c-1,0-1.8,0.3-2.5,1c-0.7,0.7-1,1.5-1,2.5c0,1,0.3,1.9,1,2.6c0.7,0.7,1.5,1,2.5,1c1,0,1.8-0.3,2.5-1 C154.8,10.6,155.1,9.8,155.1,8.8z M154.3,10.9C154.3,10.9,154.3,10.9,154.3,10.9l-1.1,0c-0.1,0-0.1,0-0.1,0c-0.1-0.1-0.4-0.5-0.9-1 c-0.3-0.3-0.5-0.6-0.6-0.9c0,0,0-0.1-0.1-0.1c-0.3,0-0.4,0-0.5,0c0,0,0,0,0,0V10c0,0.5,0.1,0.7,0.2,0.7h0.5c0,0,0.1,0,0.1,0v0.1 c0,0,0,0,0,0h-2c0,0,0,0,0,0v-0.1c0,0,0,0,0,0h0.5c0,0,0,0,0-0.1V7.5c0-0.6,0-0.9-0.1-0.9h-0.5c0,0,0,0,0,0V6.5c0,0,0,0,0,0h1.1 h1.3c0.3,0.1,0.6,0.2,0.8,0.3c0.2,0.2,0.4,0.5,0.4,0.8c0,0.3-0.1,0.5-0.4,0.9c-0.1,0.1-0.3,0.3-0.6,0.4c0,0,0,0,0,0 c0.1,0.1,0.3,0.5,0.7,1c0.2,0.2,0.4,0.5,0.8,0.8c0.2,0.1,0.3,0.1,0.5,0.1c0,0,0.1,0,0.1,0V10.9z M152.5,7.8c0-0.3-0.1-0.5-0.3-0.7 c-0.2-0.2-0.3-0.2-0.3-0.2c-0.2-0.1-0.4-0.1-0.8-0.1c-0.1,0-0.1,0-0.1,0v1.2v0.7c0,0,0,0.1,0,0.1h0.4c0.1,0,0.2,0,0.4,0 c0.1,0,0.2,0,0.2,0C152.3,8.5,152.5,8.2,152.5,7.8z"></path> </g> </svg> 